<svg width="128" height="128" viewBox="0 0 128 128" fill="none" xmlns="http://www.w3.org/2000/svg">
  <defs>
    <filter id="glow" x="-30%" y="-30%" width="160%" height="160%">
      <feGaussianBlur in="SourceGraphic" stdDeviation="4" result="blur"/>
      <feMerge>
        <feMergeNode in="blur"/>
        <feMergeNode in="SourceGraphic"/>
      </feMerge>
    </filter>
  </defs>
  <g filter="url(#glow)">
    <!-- Top leaf -->
    <path d="M64 16 C50 16, 38 28, 42 42 C44 50, 54 58, 64 60 C74 58, 84 50, 86 42 C90 28, 78 16, 64 16Z"
          fill="#22c55e" fill-opacity="0.85" stroke="#4ade80" stroke-width="1.5"/>
    <!-- Left leaf -->
    <path d="M52 50 C38 42, 22 46, 20 60 C18 72, 28 82, 40 82 C50 82, 58 74, 60 64 C56 60, 52 54, 52 50Z"
          fill="#22c55e" fill-opacity="0.85" stroke="#4ade80" stroke-width="1.5"/>
    <!-- Right leaf -->
    <path d="M76 50 C90 42, 106 46, 108 60 C110 72, 100 82, 88 82 C78 82, 70 74, 68 64 C72 60, 76 54, 76 50Z"
          fill="#22c55e" fill-opacity="0.85" stroke="#4ade80" stroke-width="1.5"/>
    <!-- Leaf veins -->
    <line x1="64" y1="28" x2="64" y2="56" stroke="#4ade80" stroke-width="1.2" opacity="0.6"/>
    <line x1="36" y1="62" x2="56" y2="64" stroke="#4ade80" stroke-width="1.2" opacity="0.6"/>
    <line x1="92" y1="62" x2="72" y2="64" stroke="#4ade80" stroke-width="1.2" opacity="0.6"/>
    <!-- Stem -->
    <path d="M64 62 C62 76, 56 92, 50 112"
          fill="none" stroke="#22c55e" stroke-width="4" stroke-linecap="round"/>
    <path d="M64 62 C62 76, 56 92, 50 112"
          fill="none" stroke="#4ade80" stroke-width="2" stroke-linecap="round"/>
  </g>
</svg>
