<svg xmlns="http://www.w3.org/2000/svg" width="2930.81" height="4103.12" viewBox="-190.403 -401.562 2930.81 4103.12"><path fill="#5B197B" d="M-190.403-401.562h2930.81v4103.12h-2930.81z"/><path fill="#DDC6EA" d="M1200.93 540.308l49.307 396.405c10.089 6.269 17.953 13.908 38.615 13.908 77.307 0 136.772-75.812 136.772-126.999v-39.079c0-102.44 15.356-293.081-87.926-293.081h-9.771c-104.984 0-127.715 35.961-126.997 48.846z"/><path fill="#DEC5ED" d="M927.389 618.465c0 130.561-13.976 390.773 117.233 390.773h9.77c41.358 0 47.964-18.555 48.846-29.307 0-111.723 23.361-429.852-87.922-429.852-17.403.001-87.926 38.844-87.927 68.386zM1572.17 989.701h68.386c61.091 0 97.692-115.282 97.692-185.619 0-93.726-75.937-214.924-166.078-214.924-56.581 0-80.529 400.544 0 400.543zM712.465 852.93v97.692c0 46.347 58.246 156.312 97.692 156.312 43.038 0 48.846-62.772 48.846-107.461V843.16c0-69.812-16.405-108.503-58.615-136.769-45.99 30.795-87.923 70.174-87.923 146.539z"/><path fill="#DDCAED" d="M976.352-25.141c-11.063 3.631-177.259 63.095-260.421 109.76-84.079 47.177-154.887 86.537-230.141 141.096-22.036 15.977-71.687 70.244-93.417 92.201-29.402 29.721-57.984 66.086-88.003 97.615-96.131 100.961-99.203 127.265-148.761 232.245-34.916 62.622-55.736 125.207-66.584 197.184-9.94 65.916-11.568 191.718-11.568 261.977 0 305.498 108.429 536.399 237.429 739.502 33.353 52.509 198.626 197.987 253.388 244.852 37.633 32.205 99.938 74.479 147.284 96.95 60.654 28.786 142.597 37.865 192.369 61.828l39.003-19.654 2.548-48.643 16.992-312.824c-50.641-33.91-103.505-52.372-162.051-91.958-73.382-49.622-81.704-65.646-138.418-125.353-39.07-41.124-200.889-265.639-200.889-330.696l-6.652-57.696v-29.305c0-91.509 23.191-312.998 48.677-371.411 58.903-135.026 68.844-157.11 157.102-262.981 39.08-46.878 172.408-153.004 241.528-178.551 93.357-34.513 205.55-95.61 334.243-95.61 231.02 0 434.822 109.013 570.549 210.996 105.7 79.423 259.846 347.437 259.846 521.708v205.155c0 110.027-121.807 283.056-197.818 359.036-41.06 41.051-76.243 96.954-130.27 123.734-36.194 17.938-146.842 68.242-177.543 84.241l17.161 302.459v87.926h68.386c158.806 0 467.033-243.487 543.185-345.83 76.198-102.406 123.676-130.591 166.163-273.456 27.481-92.4 91.739-249.548 91.739-357.651V979.933c0-230.998-222.899-576.463-357.715-687.607C1915.521 145.436 1683.49-36.08 1367.012-36.08l-250.805-2.462L976.354-25.14l-.001-.001h-.001z"/><path fill="#DDCAED" d="M1708.939 1077.619h-9.77l-371.237-9.77h-19.536c-22.871 0-39.079 16.209-39.079 39.08v9.771c0 162.393 197.942 107.463 341.929 107.463 6.453 27.718 9.766 16.699 9.766 39.075 0 114.018-51.161 56.841-130.447 84.478-28.19 9.825-132.423 52.294-152.863 52.294-28.534 0-130.863-96.393-159.529-112.169-9.653-5.062-126.022-44.142-192.168-44.142H839.466c-34.306 0-39.079 43.352-39.079 78.155 0 191.985 273.544 353.597 273.544 390.774v683.857c0 211.195-308.372 19.537-361.467 19.537h-9.77c-22.782 0-48.846 26.068-48.846 48.849v19.537c0 63.542 39.032 146.157 24.003 199.376-12.442 44.061-63.08 123.125-63.08 162.091 0 31.754 8.463 7.374 19.537 48.846h48.846l214.271-33.11 10.428 3.804c70.472 0 136.769 17.477 136.769 87.923v234.465l-9.994 78.119c11.637 17.076 31.842 48.883 58.841 48.883h48.85c53.336 0 54.122-19.541 107.463-19.541h9.77c73.851 0 118.936 29.311 156.309 29.311h9.77c26.386 0 26.936-4.668 48.846-9.77l11.938-87.598-2.167-39.404c0-36.51-29.311-97.885-29.311-175.848v-39.077c0-38.629 48.861-70.742 58.617-97.692h107.461l215.065 28.454c23.753 4.692 61.836-11.34 58.479-38.224l-11.154-107.293c-10.424-17.805-18.155-17.346-18.155-39.25v-9.77l20.829-224.555-22.782-17.723-271.706 26.334-87.809 1.018c-27.589 0-37.688-22.416-48.847-39.075l-12.103-224.552c-5.255-121.58 22.391-260.021 21.862-400.701-.502-133.397 75.741-209.914 160.754-259.329 92.545-53.79 193.628-82.809 200.728-219.353 6.063-116.589 17.775-273.548-117.236-273.548h-.001z"/></svg>